<mxfile host="app.diagrams.net" agent="Mozilla/5.0 (Windows NT 10.0; Win64; x64) AppleWebKit/537.36 (KHTML, like Gecko) Chrome/129.0.0.0 Safari/537.36" version="24.8.1">
  <diagram name="Flight Reservation Activity Diagram" id="activityDiagram">
    <mxGraphModel dx="1290" dy="470" grid="1" gridSize="10" guides="1" tooltips="1" connect="1" arrows="1" fold="1" page="1" pageScale="1" pageWidth="827" pageHeight="1169" math="0" shadow="0">
      <root>
        <!-- Initial Node -->
        <mxCell id="initialNode" value="" style="ellipse;fillColor=#000000;strokeColor=#000000;" vertex="1" parent="1">
          <mxGeometry x="160" y="100" width="40" height="40" as="geometry"/>
        </mxCell>

        <!-- Action Node: Search Flight -->
        <mxCell id="searchFlight" value="Search Flight" style="rounded=1;whiteSpace=wrap;fillColor=#FFFFFF;strokeColor=#000000;" vertex="1" parent="1">
          <mxGeometry x="140" y="200" width="100" height="40" as="geometry"/>
        </mxCell>

        <!-- Control Flow: Initial to Search Flight -->
        <mxCell id="flow1" style="edgeStyle=orthogonalEdgeStyle;strokeColor=#000000;endArrow=block;rounded=0;" edge="1" parent="1" source="initialNode" target="searchFlight">
          <mxGeometry relative="1" as="geometry"/>
        </mxCell>

        <!-- Decision Node: Book Flight -->
        <mxCell id="decision1" value="" style="rhombus;whiteSpace=wrap;fillColor=#FFFFFF;strokeColor=#000000;" vertex="1" parent="1">
          <mxGeometry x="160" y="300" width="60" height="60" as="geometry"/>
        </mxCell>

        <!-- Control Flow: Search Flight to Decision -->
        <mxCell id="flow2" style="edgeStyle=orthogonalEdgeStyle;strokeColor=#000000;endArrow=block;rounded=0;" edge="1" parent="1" source="searchFlight" target="decision1">
          <mxGeometry relative="1" as="geometry"/>
        </mxCell>

        <!-- Action Node: Make Payment -->
        <mxCell id="makePayment" value="Make Payment" style="rounded=1;whiteSpace=wrap;fillColor=#FFFFFF;strokeColor=#000000;" vertex="1" parent="1">
          <mxGeometry x="140" y="400" width="100" height="40" as="geometry"/>
        </mxCell>

        <!-- Control Flow: Decision to Make Payment (Yes) -->
        <mxCell id="flow3" style="edgeStyle=orthogonalEdgeStyle;strokeColor=#000000;endArrow=block;rounded=0;" edge="1" parent="1" source="decision1" target="makePayment">
          <mxGeometry relative="1" as="geometry"/>
        </mxCell>

        <!-- Action Node: Cancel Booking -->
        <mxCell id="cancelBooking" value="Cancel Booking" style="rounded=1;whiteSpace=wrap;fillColor=#FFFFFF;strokeColor=#000000;" vertex="1" parent="1">
          <mxGeometry x="320" y="400" width="100" height="40" as="geometry"/>
        </mxCell>

        <!-- Control Flow: Decision to Cancel Booking (No) -->
        <mxCell id="flow4" style="edgeStyle=orthogonalEdgeStyle;strokeColor=#000000;endArrow=block;rounded=0;" edge="1" parent="1" source="decision1" target="cancelBooking">
          <mxGeometry relative="1" as="geometry"/>
        </mxCell>

        <!-- Final Node -->
        <mxCell id="finalNode" value="" style="ellipse;fillColor=#FFFFFF;strokeColor=#000000;" vertex="1" parent="1">
          <mxGeometry x="160" y="500" width="40" height="40" as="geometry"/>
        </mxCell>

        <!-- Control Flow: Payment to Final Node -->
        <mxCell id="flow5" style="edgeStyle=orthogonalEdgeStyle;strokeColor=#000000;endArrow=block;rounded=0;" edge="1" parent="1" source="makePayment" target="finalNode">
          <mxGeometry relative="1" as="geometry"/>
        </mxCell>

        <!-- Control Flow: Cancel Booking to Final Node -->
        <mxCell id="flow6" style="edgeStyle=orthogonalEdgeStyle;strokeColor=#000000;endArrow=block;rounded=0;" edge="1" parent="1" source="cancelBooking" target="finalNode">
          <mxGeometry relative="1" as="geometry"/>
        </mxCell>

      </root>
    </mxGraphModel>
  </diagram>
</mxfile>
